<svg width="240" height="76" viewBox="0 0 240 76" fill="none" xmlns="http://www.w3.org/2000/svg">
<path fill-rule="evenodd" clip-rule="evenodd" d="M31.7289 26.3322L49.1305 58.1132L22.8821 74.245L29.4406 52.9292L34.8561 54.3649L27.102 35.9046L9.12673 43.2305L14.5212 45.3434L3.7938 63.8987L0 36.5474L31.7289 26.3322Z" fill="url(#paint0_radial)"/>
<path fill-rule="evenodd" clip-rule="evenodd" d="M54.0207 18.5525L70.6628 37.9139L50.8271 48.5814L35.8888 24.0524L54.0207 18.5525ZM0.917419 11.953L21.6072 8.12016L29.4581 22.3816L5.41462 29.6742L0.917419 11.953ZM25.7218 7.35848L41.8327 4.37402L51.5516 15.6801L34.0271 20.9956L25.7218 7.35848Z" fill="url(#paint1_radial)"/>
<path fill-rule="evenodd" clip-rule="evenodd" d="M25.7217 7.35852L34.0271 20.9956L51.5515 15.6802V17.794L34.0271 23.11L25.7217 9.47246V7.35852Z" fill="#777777"/>
<path fill-rule="evenodd" clip-rule="evenodd" d="M35.8887 24.0524L50.827 48.5814L70.6627 37.9139V40.0279L50.827 50.6953L35.8887 26.1663V24.0524Z" fill="#777777"/>
<path fill-rule="evenodd" clip-rule="evenodd" d="M5.41462 29.6742L29.4581 22.3816V23.9309L5.41462 31.2236L0.917419 13.5022V11.953L5.41462 29.6742Z" fill="#777777"/>
<path fill-rule="evenodd" clip-rule="evenodd" d="M3.79376 63.8988L14.5211 45.3435V46.879L3.95795 65.0995L3.79376 63.8988Z" fill="#A92725"/>
<path fill-rule="evenodd" clip-rule="evenodd" d="M22.8821 74.2451L49.1305 58.1132V59.4914L22.8821 75.6232V74.2451Z" fill="#A92725"/>
<path fill-rule="evenodd" clip-rule="evenodd" d="M27.102 35.9045L9.12671 43.2305L10.8377 43.9007L27.102 37.7845L33.5726 54.0247L34.856 54.3648L27.102 35.9045Z" fill="#A92725"/>
<path fill-rule="evenodd" clip-rule="evenodd" d="M212.645 41.3579C212.382 41.4863 212.095 41.5544 211.797 41.5544H201.059C200.261 41.5544 199.539 41.0627 199.141 40.2482C198.997 39.9518 198.905 39.6333 198.867 39.3085L198.394 40.264C197.994 41.0695 197.277 41.5544 196.485 41.5544H185.807C185.009 41.5544 184.287 41.0616 183.891 40.2465C183.493 39.432 183.497 38.449 183.9 37.6388L194.402 16.5114C194.802 15.7076 195.518 15.2242 196.309 15.2242H237.788C238.585 15.2242 239.307 15.7155 239.703 16.5289C240.101 17.3423 240.099 18.3238 239.698 19.1346L222.121 54.6882C221.726 55.4857 221.02 55.9701 220.235 55.9807C219.452 55.9912 218.736 55.5248 218.327 54.7383L212.711 43.9399C212.297 43.1459 212.275 42.174 212.645 41.3579ZM137.462 11.6349C138.595 9.36146 139.737 7.09433 140.89 4.8346C141.292 4.04544 142.001 3.57321 142.784 3.57321H156.881C157.684 3.57321 158.41 4.07133 158.805 4.89323C159.2 5.71515 159.189 6.70504 158.775 7.51427L158.01 9.01389C157.605 9.80781 156.89 10.2811 156.104 10.2758L153.429 10.2573L152.768 11.6049C153.481 11.6867 154.113 12.1663 154.471 12.9127C154.816 13.6326 154.852 14.4805 154.577 15.2242H176.537C177.335 15.2242 178.057 15.7165 178.454 16.5315C178.851 17.3465 178.847 18.329 178.444 19.1399L167.942 40.2672C167.542 41.0706 166.826 41.5544 166.035 41.5544H140.517C139.748 41.5544 139.05 41.0975 138.645 40.3353L132.021 53.8123C131.631 54.6041 130.934 55.0896 130.158 55.1102C129.382 55.1303 128.666 54.6812 128.247 53.9111L122.94 44.1464C122.511 43.3583 122.475 42.3795 122.836 41.5544H113.172C112.52 41.5544 111.917 41.2248 111.502 40.658C111.087 41.2248 110.485 41.5544 109.833 41.5544H84.314C83.5159 41.5544 82.7942 41.0616 82.3971 40.2465C82.0006 39.432 82.0042 38.449 82.407 37.6388L87.8018 26.7864C88.0894 26.208 88.5407 25.7955 89.066 25.6095C88.9466 24.9793 89.031 24.3138 89.3186 23.7354L92.9091 16.5114C93.3089 15.7076 94.0252 15.2242 94.8161 15.2242H120.335C120.94 15.2242 121.5 15.5073 121.909 15.9991L128.607 2.38313C128.997 1.59133 129.694 1.10641 130.471 1.08634C131.246 1.06627 131.963 1.51578 132.38 2.28488L137.462 11.6349Z" fill="#2B2A29"/>
<path fill-rule="evenodd" clip-rule="evenodd" d="M196.309 17.0947H237.788C238.017 17.0947 238.213 17.2283 238.326 17.4613C238.44 17.6943 238.44 17.9615 238.325 18.1939L220.747 53.7469C220.635 53.9756 220.443 54.1072 220.218 54.1103C219.994 54.1135 219.799 53.9868 219.682 53.7611L214.066 42.9633C213.943 42.7277 213.941 42.4519 214.059 42.2132L224.646 20.8039C224.761 20.5719 224.762 20.3052 224.648 20.0718C224.534 19.8388 224.338 19.7051 224.11 19.7051H222.411C222.184 19.7051 221.989 19.8372 221.875 20.0681L212.334 39.3211C212.22 39.552 212.024 39.6841 211.797 39.6841H201.058C200.829 39.6841 200.633 39.5499 200.52 39.3169C200.406 39.0835 200.407 38.8167 200.522 38.5843L209.333 20.8049C209.448 20.5725 209.449 20.3057 209.335 20.0723C209.221 19.8388 209.026 19.7051 208.797 19.7051H207.099C206.872 19.7051 206.677 19.8372 206.563 20.0681L197.022 39.3211C196.908 39.552 196.713 39.6841 196.485 39.6841H185.807C185.579 39.6841 185.383 39.5499 185.269 39.3164C185.155 39.0829 185.156 38.8156 185.271 38.5833L195.774 17.4565C195.888 17.2262 196.083 17.0947 196.309 17.0947Z" fill="#898989" stroke="#2B2A29" stroke-width="0.567" stroke-miterlimit="22.9256"/>
<path fill-rule="evenodd" clip-rule="evenodd" d="M151.019 17.0947H176.537C176.766 17.0947 176.963 17.2288 177.076 17.4623C177.189 17.6957 177.188 17.9625 177.073 18.1949L166.571 39.3222C166.456 39.5524 166.261 39.684 166.035 39.684H140.516C140.288 39.684 140.092 39.5498 139.978 39.3164C139.864 39.0829 139.865 38.8156 139.981 38.5832L145.376 27.7314C145.49 27.5006 145.685 27.3695 145.911 27.3695H159.777V27.3612H160.088L163.338 20.8049C163.453 20.5724 163.453 20.3057 163.34 20.0722C163.227 19.8387 163.03 19.7051 162.803 19.7051H161.104C160.878 19.7051 160.683 19.8366 160.569 20.0675L157.916 25.4183C157.802 25.6491 157.607 25.7807 157.38 25.7807H147.428C147.199 25.7807 147.003 25.6471 146.89 25.4131C146.775 25.1795 146.776 24.9128 146.892 24.6804L150.483 17.4564C150.597 17.2262 150.792 17.0947 151.019 17.0947ZM94.8161 17.0947H120.335C120.564 17.0947 120.759 17.2288 120.874 17.4623C120.987 17.6957 120.986 17.9625 120.871 18.1949L110.368 39.3222C110.254 39.5524 110.059 39.684 109.833 39.684H84.314C84.0857 39.684 83.8892 39.5498 83.7757 39.3164C83.6618 39.0829 83.6626 38.8156 83.7784 38.5832L89.1727 27.7314C89.2872 27.5011 89.4819 27.3695 89.7084 27.3695C94.3128 27.369 98.9337 27.3612 103.529 27.3612C103.756 27.3612 103.951 27.2291 104.065 26.9988L107.136 20.8049C107.251 20.5724 107.252 20.3057 107.138 20.0722C107.024 19.8387 106.828 19.7051 106.599 19.7051H104.902C104.676 19.7051 104.481 19.8366 104.365 20.0675L101.714 25.4183C101.6 25.6491 101.404 25.7807 101.177 25.7807H91.2251C90.9967 25.7807 90.8003 25.6471 90.6868 25.4131C90.5728 25.1795 90.5742 24.9128 90.6895 24.6804L94.2805 17.4564C94.3949 17.2262 94.5895 17.0947 94.8161 17.0947ZM102.396 30.3588L99.2265 36.7122C99.1123 36.9425 98.9174 37.0735 98.6918 37.0735H96.9965C96.768 37.0735 96.5712 36.9394 96.4579 36.7054C96.3437 36.4718 96.3456 36.2041 96.4608 35.9722L99.6297 29.6183C99.744 29.3884 99.9389 29.2575 100.165 29.2575H101.86C102.089 29.2575 102.285 29.3916 102.399 29.6257C102.513 29.8591 102.512 30.1269 102.396 30.3588ZM131.042 3.29326L136.35 13.058C136.477 13.2946 136.483 13.5761 136.363 13.8191L123.803 39.3196C123.688 39.5515 123.493 39.684 123.266 39.684H113.172C112.944 39.684 112.748 39.5504 112.635 39.3179C112.521 39.085 112.521 38.8187 112.635 38.5864L129.982 3.32073C130.093 3.09412 130.283 2.96206 130.505 2.95625C130.728 2.95044 130.922 3.07246 131.042 3.29326ZM129.586 52.9027L124.279 43.138C124.15 42.9019 124.144 42.6209 124.264 42.3779C130.245 30.2093 136.157 17.7412 142.251 5.79809C142.367 5.57201 142.559 5.44366 142.784 5.44366H156.881C157.112 5.44366 157.308 5.57887 157.422 5.81446C157.535 6.05005 157.532 6.31892 157.414 6.55133L156.649 8.05042C156.533 8.27809 156.338 8.40644 156.112 8.40539L152.877 8.38267C152.648 8.38109 152.451 8.5142 152.337 8.74767L150.558 12.366C150.443 12.5979 150.444 12.8641 150.557 13.0971C150.671 13.3294 150.867 13.4626 151.095 13.4626H152.548C152.777 13.4626 152.975 13.5983 153.088 13.8339C153.202 14.0695 153.199 14.3384 153.08 14.5703L152.674 15.3669C152.557 15.5944 152.364 15.7234 152.138 15.7218L149.28 15.7017C149.051 15.7001 148.854 15.8332 148.739 16.0667L130.645 52.8752C130.534 53.1024 130.345 53.234 130.122 53.2397C129.9 53.2456 129.706 53.1241 129.586 52.9027ZM158.599 30.3588L155.43 36.7122C155.315 36.9425 155.121 37.0735 154.894 37.0735H153.199C152.97 37.0735 152.773 36.9394 152.66 36.7054C152.547 36.4718 152.548 36.2041 152.664 35.9722L155.832 29.6183C155.947 29.3884 156.141 29.2575 156.368 29.2575H158.063C158.292 29.2575 158.488 29.3916 158.602 29.6257C158.716 29.8591 158.714 30.1269 158.599 30.3588Z" fill="#C50000" stroke="#2B2A29" stroke-miterlimit="22.9256"/>
<path d="M180.66 33.1731C182.653 33.1731 184.269 31.271 184.269 28.9247C184.269 26.5782 182.653 24.6761 180.66 24.6761C178.668 24.6761 177.053 26.5782 177.053 28.9247C177.053 31.271 178.668 33.1731 180.66 33.1731Z" fill="url(#paint2_radial)"/>
<defs>
<radialGradient id="paint0_radial" cx="0" cy="0" r="1" gradientUnits="userSpaceOnUse" gradientTransform="translate(-6.55229 67.7887) rotate(-25.8453) scale(17.6104 19.6376)">
<stop stop-color="#FF050C"/>
<stop offset="0.0901961" stop-color="#F08E91"/>
<stop offset="1" stop-color="#E31E24"/>
</radialGradient>
<radialGradient id="paint1_radial" cx="0" cy="0" r="1" gradientUnits="userSpaceOnUse" gradientTransform="translate(15.0707 28.1618) rotate(-31.4522) scale(46.0408 50.0982)">
<stop stop-color="#DCE0E2"/>
<stop offset="0.678431" stop-color="#A9B6BA"/>
<stop offset="1" stop-color="#768D93"/>
</radialGradient>
<radialGradient id="paint2_radial" cx="0" cy="0" r="1" gradientUnits="userSpaceOnUse" gradientTransform="translate(182.48 25.6775) rotate(92.5137) scale(7.62067 6.47685)">
<stop stop-color="#DCE0E2"/>
<stop offset="0.478431" stop-color="#A9B6BA"/>
<stop offset="1" stop-color="#768D93"/>
</radialGradient>
</defs>
</svg>
